# xmcd
#
# Track frame offsets:
#	150
#	13610
#	28953
#	39456
#	54593
#	68274
#	80247
#	93442
#	104362
#	117369
#
# Disc length: 1718 seconds
# Revision: 0
# Processed by: cddbd v1.5.2PL0 Copyright (c) Steve Scherf et al.
# Submitted via: dBpowerAMP V12.0
#
DISCID=7e06b40a
DTITLE=Ray Charles - What'd I Say
DYEAR=2005
DGENRE=R&B
TTITLE0=What'd I Say
TTITLE1=(Night Time Is) Ther Right Time
TTITLE2=Swanee River ROck (Talkin' 'Bout That River)
TTITLE3=Drown In My Own Tears
TTITLE4=A Fool For You
TTITLE5=It Should've Been Me
TTITLE6=Don't You Know
TTITLE7=Just For A Thrill
TTITLE8=Ain't That Love
TTITLE9=Hallelujah, I Love Her So
EXTD=
EXTT0=
EXTT1=
EXTT2=
EXTT3=
EXTT4=
EXTT5=
EXTT6=
EXTT7=
EXTT8=
EXTT9=
PLAYORDER=
